# 3ds Max Wavefront OBJ Exporter v0.97b - (c)2007 guruware
# File Created: 27.03.2017 23:11:42

#
# object Mesh_Coin_01
#

v  3.8389 -0.0836 -0.0000
v  3.5970 1.2884 0.0000
v  3.5970 1.2884 0.9039
v  3.8389 -0.0836 0.9039
v  2.9004 2.4949 0.0000
v  2.9004 2.4949 0.9039
v  1.8332 3.3904 0.0000
v  1.8332 3.3904 0.9039
v  0.5241 3.8669 0.0000
v  0.5241 3.8669 0.9039
v  -0.8691 3.8669 0.0000
v  -0.8691 3.8669 0.9039
v  -2.1783 3.3904 0.0000
v  -2.1783 3.3904 0.9039
v  -3.2455 2.4949 0.0000
v  -3.2455 2.4949 0.9039
v  -3.9421 1.2884 0.0000
v  -3.9421 1.2884 0.9039
v  -4.1840 -0.0836 -0.0000
v  -4.1840 -0.0836 0.9039
v  -3.9421 -1.4556 -0.0000
v  -3.9421 -1.4556 0.9039
v  -3.2455 -2.6621 -0.0000
v  -3.2455 -2.6621 0.9039
v  -2.1783 -3.5576 -0.0000
v  -2.1783 -3.5576 0.9039
v  -0.8691 -4.0341 -0.0000
v  -0.8691 -4.0341 0.9039
v  0.5240 -4.0341 -0.0000
v  0.5240 -4.0341 0.9039
v  1.8332 -3.5576 -0.0000
v  1.8332 -3.5576 0.9039
v  2.9004 -2.6621 -0.0000
v  2.9004 -2.6621 0.9039
v  3.5970 -1.4556 -0.0000
v  3.5970 -1.4556 0.9039
# 36 vertices

vn 1.0000 -0.0000 -0.0000
vn 0.9397 0.3420 0.0000
vn 0.7660 0.6428 0.0000
vn 0.5000 0.8660 0.0000
vn 0.1736 0.9848 0.0000
vn -0.1736 0.9848 0.0000
vn -0.5000 0.8660 0.0000
vn -0.7660 0.6428 0.0000
vn -0.9397 0.3420 0.0000
vn -1.0000 0.0000 0.0000
vn -0.9397 -0.3420 -0.0000
vn -0.7660 -0.6428 -0.0000
vn -0.5000 -0.8660 -0.0000
vn -0.1736 -0.9848 -0.0000
vn 0.1736 -0.9848 -0.0000
vn 0.5000 -0.8660 -0.0000
vn 0.7660 -0.6428 -0.0000
vn 0.9397 -0.3420 -0.0000
vn 0.0000 0.0000 -1.0000
vn 0.0000 -0.0000 1.0000
# 20 vertex normals

vt 0.9941 0.7148 -0.6043
vt 0.9941 0.7690 -0.6043
vt 0.9688 0.7690 -0.6043
vt 0.9688 0.7148 -0.6043
vt 0.9941 0.8232 -0.6043
vt 0.9687 0.8231 -0.6043
vt 0.9940 0.8773 -0.6043
vt 0.9687 0.8773 -0.6043
vt 0.9940 0.9315 -0.6043
vt 0.9687 0.9315 -0.6043
vt 0.9940 0.9857 0.6043
vt 0.9687 0.9857 -0.6043
vt 0.9940 0.0099 0.6043
vt 0.9940 0.0642 -0.6043
vt 0.9687 0.0642 -0.6043
vt 0.9687 0.0100 -0.6043
vt 0.9940 0.1185 -0.6043
vt 0.9687 0.1185 -0.6043
vt 0.9940 0.1727 -0.6043
vt 0.9687 0.1727 -0.6043
vt 0.9940 0.2269 -0.6043
vt 0.9687 0.2269 -0.6043
vt 0.9941 0.2812 -0.6043
vt 0.9687 0.2812 -0.6043
vt 0.9941 0.3354 -0.6043
vt 0.9687 0.3354 -0.6043
vt 0.9941 0.3896 -0.6043
vt 0.9687 0.3896 -0.6043
vt 0.9941 0.4438 -0.6043
vt 0.9688 0.4438 -0.6043
vt 0.9941 0.4980 -0.6043
vt 0.9688 0.4980 -0.6043
vt 0.9941 0.5522 -0.6043
vt 0.9688 0.5522 -0.6043
vt 0.9941 0.6064 -0.6043
vt 0.9688 0.6064 -0.6043
vt 0.9941 0.6606 -0.6043
vt 0.9688 0.6606 -0.6043
vt 0.5403 0.1077 0.0242
vt 0.6038 0.0544 0.0242
vt 0.6816 0.0261 0.0242
vt 0.4845 0.2610 -0.0242
vt 0.7644 0.0261 0.0242
vt 0.8422 0.0544 0.0242
vt 0.9471 0.1794 0.0242
vt 0.9057 0.1077 0.0242
vt 0.9615 0.2610 -0.0242
vt 0.9471 0.3425 0.0242
vt 0.8422 0.4675 0.0242
vt 0.9057 0.4143 0.0242
vt 0.7644 0.4958 0.0242
vt 0.6816 0.4958 0.0242
vt 0.5403 0.4143 0.0242
vt 0.6038 0.4675 0.0242
vt 0.4989 0.3425 0.0242
vt 0.4989 0.1794 0.0242
vt 0.4989 0.6579 -0.0242
vt 0.5403 0.5861 -0.0242
vt 0.6038 0.5329 -0.0242
vt 0.4989 0.8210 -0.0242
vt 0.6816 0.5046 -0.0242
vt 0.7644 0.5046 -0.0242
vt 0.9057 0.5861 -0.0242
vt 0.8422 0.5329 -0.0242
vt 0.9471 0.6579 -0.0242
vt 0.9615 0.7394 0.0242
vt 0.9057 0.8927 -0.0242
vt 0.9471 0.8210 -0.0242
vt 0.8422 0.9460 -0.0242
vt 0.7644 0.9743 -0.0242
vt 0.6038 0.9460 -0.0242
vt 0.6816 0.9743 -0.0242
vt 0.5403 0.8927 -0.0242
vt 0.4845 0.7394 0.0242
# 74 texture coords

g Mesh_Coin_01
f 1/1/1 2/2/2 3/3/2 4/4/1 
f 2/2/2 5/5/3 6/6/3 3/3/2 
f 5/5/3 7/7/4 8/8/4 6/6/3 
f 7/7/4 9/9/5 10/10/5 8/8/4 
f 9/9/5 11/11/6 12/12/6 10/10/5 
f 11/13/6 13/14/7 14/15/7 12/16/6 
f 13/14/7 15/17/8 16/18/8 14/15/7 
f 15/17/8 17/19/9 18/20/9 16/18/8 
f 17/19/9 19/21/10 20/22/10 18/20/9 
f 19/21/10 21/23/11 22/24/11 20/22/10 
f 21/23/11 23/25/12 24/26/12 22/24/11 
f 23/25/12 25/27/13 26/28/13 24/26/12 
f 25/27/13 27/29/14 28/30/14 26/28/13 
f 27/29/14 29/31/15 30/32/15 28/30/14 
f 29/31/15 31/33/16 32/34/16 30/32/15 
f 31/33/16 33/35/17 34/36/17 32/34/16 
f 33/35/17 35/37/18 36/38/18 34/36/17 
f 35/37/18 1/1/1 4/4/1 36/38/18 
f 33/39/19 31/40/19 29/41/19 1/42/19 
f 29/41/19 27/43/19 25/44/19 21/45/19 
f 25/44/19 23/46/19 21/45/19 
f 21/45/19 19/47/19 17/48/19 13/49/19 
f 17/48/19 15/50/19 13/49/19 
f 13/49/19 11/51/19 9/52/19 5/53/19 
f 9/52/19 7/54/19 5/53/19 
f 21/45/19 13/49/19 5/53/19 29/41/19 
f 5/53/19 2/55/19 1/42/19 29/41/19 
f 35/56/19 33/39/19 1/42/19 
f 3/57/20 6/58/20 8/59/20 36/60/20 
f 8/59/20 10/61/20 12/62/20 16/63/20 
f 12/62/20 14/64/20 16/63/20 
f 16/63/20 18/65/20 20/66/20 24/67/20 
f 20/66/20 22/68/20 24/67/20 
f 24/67/20 26/69/20 28/70/20 32/71/20 
f 28/70/20 30/72/20 32/71/20 
f 16/63/20 24/67/20 32/71/20 8/59/20 
f 32/71/20 34/73/20 36/60/20 8/59/20 
f 4/74/20 3/57/20 36/60/20 
# 30 polygons - 8 triangles

